<svg xmlns="http://www.w3.org/2000/svg" xmlns:xlink="http://www.w3.org/1999/xlink" viewBox="0 0 90 80"><defs><style>.cls-1{fill:#ec6751;}.cls-2{fill:url(#linear-gradient);}.cls-3{fill:url(#linear-gradient-2);}.cls-4{font-size:15.58px;fill:#fff;font-family:ElectroluxSans-SemiBold, Electrolux Sans;font-weight:700;}.cls-5{letter-spacing:-0.01em;}.cls-6{letter-spacing:0em;}</style><linearGradient id="linear-gradient" x1="30.71" y1="45.78" x2="84.21" y2="48.28" gradientUnits="userSpaceOnUse"><stop offset="0.06" stop-color="#fff" stop-opacity="0.8"/><stop offset="0.11" stop-color="#fefafa" stop-opacity="0.78"/><stop offset="0.17" stop-color="#fdeeeb" stop-opacity="0.71"/><stop offset="0.25" stop-color="#fad9d3" stop-opacity="0.6"/><stop offset="0.33" stop-color="#f7bbb1" stop-opacity="0.44"/><stop offset="0.42" stop-color="#f29586" stop-opacity="0.24"/><stop offset="0.52" stop-color="#ec6852" stop-opacity="0.01"/><stop offset="0.52" stop-color="#ec6751" stop-opacity="0"/></linearGradient><linearGradient id="linear-gradient-2" x1="57.4" y1="66.35" x2="54.9" y2="19.35" xlink:href="#linear-gradient"/></defs><title>Arrow buttons</title><g id="Close_Right" data-name="Close Right"><path class="cls-1" d="M50.51,0H0V40H28.57L1.07,60,28.51,80v0H50a40,40,0,0,0,.51-80Z"/><path class="cls-2" d="M50.25,40.19,23,59.92,50,79.47V80A40,40,0,0,0,81.07,14.82"/><path class="cls-3" d="M50.25,40.19,23,59.92,50,79.47V80A40,40,0,0,0,81.07,14.82"/><text class="cls-4" transform="translate(12.34 24.21)">Cl<tspan class="cls-5" x="15.24" y="0">o</tspan><tspan class="cls-6" x="24.96" y="0">se</tspan></text></g></svg>